<?xml version="1.0" encoding="iso-8859-1"?>
<!-- Generator: Adobe Illustrator 19.0.0, SVG Export Plug-In . SVG Version: 6.00 Build 0)  -->
<svg version="1.1" id="Capa_1" xmlns="http://www.w3.org/2000/svg" xmlns:xlink="http://www.w3.org/1999/xlink" x="0px" y="0px"
	 viewBox="0 0 512 512" style="enable-background:new 0 0 512 512;" xml:space="preserve">
<g>
	<g>
		<g>
			<path fill="#FFFFFF" d="M469.333,0H42.667C19.146,0,0,19.135,0,42.667v128c0,23.531,19.146,42.667,42.667,42.667H78.75l7.708,15.438
				c3.625,7.229,15.458,7.229,19.083,0l7.708-15.438h121.417l12.792,17.063c4.042,5.375,13.042,5.375,17.083,0l12.792-17.063H398.75
				l7.708,15.438c1.813,3.615,5.5,5.896,9.542,5.896c4.042,0,7.729-2.281,9.542-5.896l7.708-15.438h36.083
				c23.521,0,42.667-19.135,42.667-42.667v-128C512,19.135,492.854,0,469.333,0z M490.667,170.667
				c0,11.76-9.563,21.333-21.333,21.333h-42.667c-4.042,0-7.729,2.281-9.542,5.896l-1.125,2.25l-1.125-2.25
				c-1.813-3.615-5.5-5.896-9.542-5.896H272c-3.354,0-6.521,1.583-8.542,4.271L256,206.219l-7.458-9.948
				C246.521,193.583,243.354,192,240,192H106.667c-4.042,0-7.729,2.281-9.542,5.896L96,200.146l-1.125-2.25
				c-1.813-3.615-5.5-5.896-9.542-5.896H42.667c-11.771,0-21.333-9.573-21.333-21.333v-128c0-11.76,9.563-21.333,21.333-21.333
				h426.667c11.771,0,21.333,9.573,21.333,21.333V170.667z"/>
			<path fill="#FFFFFF" d="M309.333,341.333C309.333,311.927,285.417,288,256,288s-53.333,23.927-53.333,53.333
				c0,29.406,23.917,53.333,53.333,53.333S309.333,370.74,309.333,341.333z M224,341.333c0-17.646,14.354-32,32-32s32,14.354,32,32
				c0,17.646-14.354,32-32,32S224,358.979,224,341.333z"/>
			<path fill="#FFFFFF" d="M469.333,309.333C469.333,279.927,445.417,256,416,256c-29.417,0-53.333,23.927-53.333,53.333
				s23.917,53.333,53.333,53.333C445.417,362.667,469.333,338.74,469.333,309.333z M384,309.333c0-17.646,14.354-32,32-32
				c17.646,0,32,14.354,32,32c0,17.646-14.354,32-32,32C398.354,341.333,384,326.979,384,309.333z"/>
			<path fill="#FFFFFF" d="M149.333,309.333C149.333,279.927,125.417,256,96,256s-53.333,23.927-53.333,53.333S66.583,362.667,96,362.667
				S149.333,338.74,149.333,309.333z M64,309.333c0-17.646,14.354-32,32-32s32,14.354,32,32c0,17.646-14.354,32-32,32
				S64,326.979,64,309.333z"/>
			<path fill="#FFFFFF" d="M416,64H96c-5.896,0-10.667,4.771-10.667,10.667c0,5.896,4.771,10.667,10.667,10.667h320
				c5.896,0,10.667-4.771,10.667-10.667C426.667,68.771,421.896,64,416,64z"/>
			<path fill="#FFFFFF" d="M352,128H96c-5.896,0-10.667,4.771-10.667,10.667c0,5.896,4.771,10.667,10.667,10.667h256
				c5.896,0,10.667-4.771,10.667-10.667C362.667,132.771,357.896,128,352,128z"/>
			<path fill="#FFFFFF" d="M488.958,395.344c-17.042-10.042-43.542-22.01-72.958-22.01c-29.417,0-55.917,11.969-72.958,22.01
				c-12.117,7.151-19.944,20.155-22.098,34.849C303.145,422.668,280.467,416,256,416s-47.143,6.667-64.943,14.191
				c-2.154-14.694-9.982-27.697-22.099-34.848c-17.042-10.042-43.542-22.01-72.958-22.01s-55.917,11.969-72.958,22.01
				C8.833,403.729,0,420.01,0,437.833v6.833c0,13.604,10.25,24.667,22.854,24.667h128c-0.855,3.626-1.521,7.327-1.521,11.167v6.833
				c0,13.604,10.938,24.667,24.375,24.667h164.583c13.438,0,24.375-11.063,24.375-24.667V480.5c0-3.84-0.665-7.54-1.521-11.167h128
				c12.604,0,22.854-11.063,22.854-24.667v-6.833C512,420.01,503.167,403.729,488.958,395.344z M162.253,448H22.854
				c-0.25,0-1.521-1.115-1.521-3.333v-6.833c0-10.156,4.917-19.615,12.542-24.115c14.75-8.688,37.5-19.052,62.125-19.052
				s47.375,10.365,62.125,19.052c7.625,4.5,12.542,13.958,12.542,24.115l0.056,3.013C167.604,442.954,164.751,445.279,162.253,448z
				 M341.333,487.333c0,1.833-1.354,3.333-3.042,3.333H173.708c-1.688,0-3.042-1.5-3.042-3.333V480.5
				c0-10.094,5.479-19.229,14.313-23.854c16.813-8.813,42.771-19.313,71.021-19.313s54.208,10.5,71.021,19.313
				c8.833,4.625,14.313,13.76,14.313,23.854V487.333z M490.667,444.667c0,2.219-1.271,3.333-1.521,3.333H349.747
				c-2.483-2.704-5.319-5.014-8.414-7.113v-3.053c0-10.156,4.917-19.615,12.542-24.115c14.75-8.688,37.5-19.052,62.125-19.052
				s47.375,10.365,62.125,19.052c7.625,4.5,12.542,13.958,12.542,24.115V444.667z"/>
		</g>
	</g>
</g>
<g>
</g>
<g>
</g>
<g>
</g>
<g>
</g>
<g>
</g>
<g>
</g>
<g>
</g>
<g>
</g>
<g>
</g>
<g>
</g>
<g>
</g>
<g>
</g>
<g>
</g>
<g>
</g>
<g>
</g>
</svg>
