<svg enable-background="new 0 0 1024 1024" height="1024" viewBox="0 0 1024 1024" width="1024" xmlns="http://www.w3.org/2000/svg"><path d="m0 0h1024v1024h-1024z" fill="#f0b63f"/><g fill="#455e55"><g transform="translate(0 221.25)"><path d="m624.3 37.7.1-.8c-.2.2-.5.3-.8.4.3.2.5.3.7.4z" opacity=".34"/><path d="m427.6 142.1-.3-1.9c1.4 2.6 3.4 4.6 5.5 5.6v.3c.4.1.8 0 1.2.1.9.3 1.9.3 2.9.2.51-.19 2.69-.22 4.9-2.8 2.7-2.3 4.2-5.8 3.5-9.7-6.58-42.35-4.31-27.74-4.8-30.9-1-6.9-5.4-12.1-10.1-12.5 7.9-32.3 36.3-55.9 69.7-55.4 33.6.6 61.3 25.6 67.8 58.5-3.6 1.7-6.6 5.9-7.6 11.4l-5.2 27.8c-.71 4.11-.03 7.93.4 8.8 2.01 6.59 6.53 6.74 6.8 6.9.4.1.8.1 1.2.1.6.1 2.03.51 3.9.2-.2-.4-.3-.7-.4-1.1 1.3-.7 2.6-1.7 3.7-3l6.1 1.2 8.4-41.3-5.4-1.1c-.62-8.43-6.24-11.61-10.6-10.3-3.3-36.8-32.7-65.8-69-66.5-36.2-.6-66.6 27.3-71.2 63.8h-.1c-.1.07-7.28.7-8 11.1l-.2-1.1-7 1.2 6.9 41.6z"/><path d="m512 148s2.1-4.1 0-6-4.6-3.7-5.5-3.8c-4.66 0-8.64 0-13.3 0-.9.1-3.7 2-5.8 3.8s.1 6 .1 6 6.3 8.3 8.3 10.5c2 2.3 4.2 1.8 4.2 1.8s1.8.4 3.8-1.8c2.1-2.3 8.2-10.5 8.2-10.5z"/><ellipse cx="514.3" cy="124.4" rx="4.4" ry="8.5"/><ellipse cx="486.1" cy="124.4" rx="4.4" ry="8.5"/><path d="m621 37.6c.2.1.4.2.6.3l.1-.8c-.2.2-.4.4-.7.5z"/><path d="m567.8 149.5c-8.46 2.6-15.55-3.77-14.2-12l5-31.9c-4.34-26.03-23.81-44.7-58.4-45.3v-.9c-1.01 0-5.85.6-8 .6l-.3.1c2.3 0 4.51.05 5.6.1-40.6.8-52.6 28.2-55.9 39.4l5.4 35c1.19 7.88-5.53 14.64-14.1 12-1.5 9.1-37.5 41.1-41.3 45.8-3.8 4.8-6.1 8-1.1 11.8 5 3.9 15.7-3.3 21.4-7.1 5.7-3.9 9.6-2.9 9.6-2.9v-.6c0 11 7.3 31.3 10.3 36.7l3.1 8.2c-10.6 3.3-17.6 9.3-17.6 15.8 0 .2 0 .5.1.7-2.57 10.28 5.52 21.5 17.3 21.5h43.2c8.3 0 15.3-5.8 17.2-13.6 1.69-3.01 1.92-6.53.3-10-2.32-12.95-30.41-20.21-54-15.6-.5-1.7-.8-3.3-1.1-4.8-1.8-12.4-6.2-59.4 26.7-83.2.4-.3.7-.5 1.1-.8l-.8-.8 2.3-2.3c-7.2-3.1-12.3-10.3-12.3-18.7 0-11.3 9.1-20.4 20.4-20.4 8.2 0 15.3 4.9 18.5 11.9l3.5-3.5 3.5 3.5c3.2-7 10.4-11.9 18.7-11.9 11.3 0 20.4 9.1 20.4 20.4 0 8.4-5.1 15.6-12.3 18.7l2.3 2.3-.8.8c.4.3.7.5 1.1.8 32.8 23.7 28.5 70.8 26.7 83.2-.3 1.5-.6 3.1-1.1 4.8-22.86-4.47-49.51 2.21-53.6 14.2-2.6 3.91-2.56 8.71.3 12.6 2.3 7.2 8.9 12.4 16.8 12.4h43.5c11.78 0 19.84-11.24 17.3-21.4 0-.2.1-.4.1-.6 0-6.5-7-12.1-17.6-15.5l3.1-7.6c3-7.3 9.7-26.2 9.6-37.3s4.3-1 10 2.9c5.7 3.8 16.7 10.9 21.7 7.1s2.7-7.1-1.1-11.8c-3.7-4.1-34.3-31.3-40.5-42.8z"/><path d="m506.3 60.2c-7.12 0-7.44 0-.3 0-.1 0 .3 0 .3 0z"/></g><path d="m267.7 686.8h33.5c2.8 0 4.1 2.4 4.1 7.2s-1.4 7.2-4.1 7.2h-33.5c-22.21 0-32.7-9.14-32.7-36.4v-113c0-3.2 2.8-4.8 8.3-4.8s8.3 1.6 8.3 4.8v113c0 8 1.2 13.7 3.5 17 2.4 3.4 6.6 5 12.6 5z"/><path d="m346.9 580.9v96.2c0 4.4 1 8.6 3.1 12.4 2.1 3.7 3.1 5.7 3.1 5.8 0 1.7-1.3 3.4-3.9 5.4-2.6 1.8-4.8 2.7-6.6 2.7-2.9 0-5.7-2.5-8.3-7.5-6.71-13.17-2.74-16.89-3.9-115.1 0-3.2 2.8-4.8 8.3-4.8 5.5.1 8.2 1.7 8.2 4.9zm.6-44.1v18c0 3.4-3 5.2-9.1 5.2-5.9 0-8.9-1.7-8.9-5.2v-18c0-3.4 3-5.2 8.9-5.2 6.1 0 9.1 1.7 9.1 5.2z"/><path d="m467.7 686.8c2.8 0 4.1 2.4 4.1 7.2s-1.4 7.2-4.1 7.2h-79.3c-5.7 0-3.68-9.79-4.1-14.4 0-16.91 1.29-11.2 61.7-74.7 7.69-8.07 9.1-8.92 9.1-15.9v-4.6h-60.6c-2.8 0-4.1-2.4-4.1-7.2s1.4-7.2 4.1-7.2h73.1c2.8 0 4.1 2.4 4.1 7.2-.35 7.98 1.27 19.25-3.1 25.9-2.1 3.2-7.7 9-16.8 17.4-52.4 54.02-50.9 49.78-50.9 59.1z"/><path d="m586.1 686.8c2.8 0 4.1 2.4 4.1 7.2s-1.4 7.2-4.1 7.2h-79.2c-5.7 0-3.68-9.79-4.1-14.4 0-9.85 1.31-10.31 3.7-14.5 1.38-2.75 13.38-14.58 16.2-17.4 53.08-54.72 50.9-49.95 50.9-58.7v-4.6h-60.7c-2.8 0-4.1-2.4-4.1-7.2s1.4-7.2 4.1-7.2h73.1c2.8 0 4.1 2.4 4.1 7.2-.35 7.98 1.27 19.25-3.1 25.9-2.1 3.2-7.7 9-16.8 17.4-52.4 54.02-50.9 49.78-50.9 59.1z"/><path d="m654.3 552.9v24.2h21.7c2.8 0 4.1 2.4 4.1 7.2s-1.4 7.2-4.1 7.2h-21.7c.92 86.17-2.27 88.18 3.1 97.9 2.1 3.7 3.1 5.7 3.1 5.8 0 1.7-1.3 3.4-3.9 5.4-6.27 4.34-10.4 3.85-14.9-4.8-2.6-5.1-3.9-10.7-3.9-16.8v-87.5h-16.6c-2.8 0-4.1-2.4-4.1-7.2s1.4-7.2 4.1-7.2h16.6v-24.2c0-3.2 2.8-4.8 8.3-4.8 5.5.1 8.2 1.6 8.2 4.8z"/><path d="m736.6 753.1h-14.9c-2.8 0-4.1-2.4-4.1-7.2s1.4-7.2 4.1-7.2c9.86-.42 24.5 1.5 30.8-3.5 6.73-5.11 6.32-18.37 8.9-30.6-7.53-.54-25.94 2.26-35.2-6.6-4.6-4.4-7.7-11.7-9.3-21.7-16.09-97.96-15.8-95.97-15.8-96.5 0-2.5 2.6-3.7 7.9-3.7 5.2 0 8.1 1.6 8.7 4.8 15.99 91.48 14.76 99.14 20.1 105.5 4.94 5.17 15.89 2.98 26.3 3.5l18.2-109.1c.6-3.2 3.3-4.8 8.3-4.8s7.5 1.2 7.5 3.7c0 2.56-4.94 29.64-23.6 140.6-4.27 25.45-11.34 32.8-37.9 32.8z"/></g></svg>